<svg width="8" height="8" viewBox="0 0 8 8" fill="none" xmlns="http://www.w3.org/2000/svg">
<path d="M7.69966 2.0925C7.55901 1.92505 7.35459 1.82875 7.13954 1.82875H3.33282C3.18615 1.82875 3.06711 1.95133 3.06711 2.10233C3.06711 2.25337 3.18615 2.37595 3.33282 2.37595H7.13954C7.22279 2.37595 7.27452 2.42265 7.2979 2.45035C7.32129 2.47846 7.35884 2.53794 7.34679 2.62258L7.01058 5.01537C6.984 5.20293 6.82529 5.34445 6.64106 5.34445H2.77553C2.57966 5.34445 2.41988 5.19305 2.40358 4.9924L2.0624 0.80724C2.05248 0.683188 1.96214 0.581434 1.8431 0.560252L1.10583 0.428558C0.95951 0.404471 0.823508 0.502607 0.798708 0.651818C0.773908 0.800672 0.870629 0.942241 1.01513 0.968115L1.5501 1.06334L1.87392 5.03803C1.9136 5.52468 2.30119 5.89169 2.77553 5.89169H6.64106C7.08781 5.89169 7.47257 5.54876 7.53634 5.09384L7.87291 2.70101C7.90373 2.48137 7.84031 2.25994 7.69966 2.0925Z" fill="#07172E"/>
<path d="M2.17938 7.02267C2.17938 6.71803 2.42025 6.46997 2.71608 6.46997C3.01191 6.46997 3.25247 6.71803 3.25247 7.02267C3.25247 7.3273 3.01191 7.575 2.71608 7.575C2.42025 7.575 2.17938 7.3273 2.17938 7.02267Z" fill="#07172E"/>
<path d="M6.16599 7.02267C6.16599 6.71803 6.40654 6.46997 6.70237 6.46997C6.9982 6.46997 7.23911 6.71803 7.23911 7.02267C7.23911 7.3273 6.9982 7.575 6.70237 7.575C6.40654 7.575 6.16599 7.3273 6.16599 7.02267Z" fill="#07172E"/>
<path d="M6.33895 3.45099C6.33895 3.60203 6.21991 3.72461 6.07324 3.72461H5.09085C4.94382 3.72461 4.82513 3.60203 4.82513 3.45099C4.82513 3.29995 4.94382 3.17737 5.09085 3.17737H6.07324C6.21991 3.17737 6.33895 3.29995 6.33895 3.45099Z" fill="#07172E"/>
</svg>
