<svg width="8" height="8" viewBox="0 0 8 8" fill="none" xmlns="http://www.w3.org/2000/svg">
<path d="M7.17347 2.43867C7.42584 2.64504 7.57404 2.95552 7.57728 3.28483L7.57422 6.15854C7.57422 6.93915 6.95178 7.57192 6.184 7.57192H5.56747C5.19586 7.57192 4.8941 7.26657 4.89242 6.88874V5.59133C4.89242 5.49096 4.81235 5.40958 4.71363 5.40958H3.78886C3.7409 5.40954 3.69498 5.42915 3.66136 5.46392C3.62774 5.49869 3.60927 5.5457 3.61007 5.59446V6.08959C3.61007 6.24537 3.48586 6.37166 3.33265 6.37166C3.17944 6.37166 3.05523 6.24537 3.05523 6.08959V5.59446C3.05523 5.39582 3.13285 5.20532 3.27101 5.06486C3.40916 4.92437 3.59657 4.84549 3.79197 4.84549H4.71669C5.12236 4.84719 5.45037 5.18203 5.45032 5.59446V6.88874C5.45032 6.95452 5.50277 7.00783 5.56747 7.00783H6.19941C6.65904 7.00783 7.03167 6.62901 7.03167 6.16167V3.29108C7.02941 3.13204 6.95698 2.98247 6.83441 2.88367L4.70439 1.15694C4.43581 0.932118 4.04821 0.932118 3.77962 1.15694L3.09533 1.67715C2.9685 1.76974 2.79184 1.74029 2.70076 1.61132C2.60967 1.4824 2.63863 1.3028 2.76546 1.21021L3.44056 0.711943C3.90863 0.329418 4.57538 0.329418 5.04345 0.711943L7.17347 2.43867Z" fill="#07172E"/>
<path d="M2.30617 7.00464H3.72414V7.01089C3.87735 7.01089 4.00156 7.13718 4.00156 7.29292C4.00156 7.4487 3.87735 7.57498 3.72414 7.57498H2.30617C1.5391 7.57324 0.917642 6.94149 0.915955 6.16161V3.29102C0.92084 2.9593 1.07401 2.64787 1.33211 2.44486L1.58795 2.2506C1.70843 2.19282 1.85227 2.23031 1.93061 2.3398C2.00894 2.44933 1.99966 2.59997 1.90853 2.69873L1.65882 2.88677C1.54052 2.98669 1.47173 3.13466 1.4708 3.29102V6.15848C1.47417 6.6256 1.84672 7.00294 2.30617 7.00464Z" fill="#07172E"/>
</svg>
