<svg width="165" height="35" viewBox="0 0 165 35" fill="none" xmlns="http://www.w3.org/2000/svg">
<g clip-path="url(#clip0_72_35)">
<path d="M52.0013 11.2318V16.1318H61.3521V21H52.0013V28.6364H46.0096V6.36365H62.6231V11.2318H52.0013Z" fill="black"/>
<path d="M65.4252 6.36365H71.4169V28.6364H65.4252V6.36365Z" fill="black"/>
<path d="M80.1886 11.3591H73.6825V6.36365H92.6562V11.3591H86.1803V28.6364H80.1886V11.3591Z" fill="black"/>
<path d="M94.8885 6.36365H100.88V23.6409H110.987V28.6364H94.8885V6.36365Z" fill="black"/>
<path d="M113.358 6.36365H119.35V28.6364H113.358V6.36365Z" fill="black"/>
<path d="M143.767 6.36365V28.6364H138.834L129.484 16.7682V28.6364H123.613V6.36365H128.545L137.896 18.2318V6.36365H143.767Z" fill="black"/>
<path d="M165 23.7682V28.6364H147.993V6.36365H164.607V11.2318H153.924V14.9864H163.336V19.6955H153.924V23.7682H165Z" fill="black"/>
<path d="M17.4519 35C7.81459 35 0 27.1638 0 17.5H17.4519V35Z" fill="#FE7350"/>
<path d="M0 0C9.63733 0 17.4519 7.83612 17.4519 17.5H0V0Z" fill="#FE7350"/>
<path d="M17.4519 35C27.0892 35 34.9038 27.1638 34.9038 17.5H17.4519V35Z" fill="#FE7350"/>
<path d="M34.9038 17.5C34.9038 7.83612 27.0892 0 17.4519 0V17.5H34.9038Z" fill="#FE7350"/>
</g>
<defs>
<clipPath id="clip0_72_35">
<rect width="165" height="35" fill="white"/>
</clipPath>
</defs>
</svg>
