<svg width="10" height="10" viewBox="0 0 13 13" fill="none" xmlns="http://www.w3.org/2000/svg">
    <path d="M12.5488 12.0088L10.5022 10.0079L10.4543 9.9349C10.365 9.84611 10.2431 9.7961 10.1158 9.7961C9.98854 9.7961 9.86656 9.84611 9.7774 9.9349C8.03813 11.5306 5.35808 11.6173 3.5147 10.1376C1.67131 8.65787 1.23653 6.07093 2.49875 4.09231C3.76104 2.11378 6.32856 1.35756 8.49859 2.32521C10.6686 3.29286 11.7678 5.68415 11.0672 7.9132C11.0167 8.07417 11.0579 8.24929 11.1754 8.37253C11.2927 8.49578 11.4685 8.5484 11.6363 8.51066C11.8042 8.47286 11.9387 8.35036 11.9892 8.18938C12.8267 5.54416 11.5618 2.69755 9.01255 1.491C6.46334 0.284457 3.39495 1.08011 1.79225 3.36312C0.189623 5.64619 0.53368 8.73155 2.6019 10.6233C4.67012 12.5151 7.84181 12.6455 10.0652 10.9302L11.8772 12.7018C12.0644 12.884 12.367 12.884 12.5541 12.7018C12.7411 12.5171 12.7411 12.2196 12.5541 12.0348L12.5488 12.0088Z" fill="black"/>
</svg>
